<svg id="Layer_1" data-name="Layer 1" xmlns="http://www.w3.org/2000/svg" xmlns:xlink="http://www.w3.org/1999/xlink" viewBox="0 0 3353 1685"><defs><style>.cls-1,.cls-10,.cls-11,.cls-18,.cls-19,.cls-20,.cls-21,.cls-22,.cls-9{fill:none;}.cls-2{clip-path:url(#clip-path);}.cls-3{fill:#094063;}.cls-4{fill:#1bc1e5;}.cls-5{clip-path:url(#clip-path-2);}.cls-6{fill:#7dd7e3;}.cls-7{fill:url(#linear-gradient);}.cls-12,.cls-13,.cls-14,.cls-8{fill:#fff;}.cls-12,.cls-20,.cls-22,.cls-9{stroke:#1bc1e5;}.cls-10,.cls-13,.cls-20,.cls-22,.cls-9{stroke-miterlimit:10;}.cls-10,.cls-12,.cls-13,.cls-14,.cls-19,.cls-9{stroke-width:4px;}.cls-10,.cls-13{stroke:#063f61;}.cls-11,.cls-14,.cls-18,.cls-19,.cls-21{stroke:#083f61;}.cls-11,.cls-12,.cls-14,.cls-18,.cls-19,.cls-21{stroke-linecap:round;stroke-linejoin:round;}.cls-11{stroke-width:3.57px;}.cls-15{clip-path:url(#clip-path-3);}.cls-16{clip-path:url(#clip-path-4);}.cls-17{fill:url(#linear-gradient-2);}.cls-18,.cls-20{stroke-width:5px;}.cls-21,.cls-22{stroke-width:3px;}</style><clipPath id="clip-path"><circle class="cls-1" cx="1672.25" cy="1192.87" r="211.38"/></clipPath><clipPath id="clip-path-2"><ellipse class="cls-1" cx="1671.25" cy="1193.87" rx="127.77" ry="126.06"/></clipPath><linearGradient id="linear-gradient" x1="-6250.57" y1="-7107.18" x2="-5785.45" y2="-7107.18" gradientTransform="translate(8776.4 -4824.85) rotate(-90)" gradientUnits="userSpaceOnUse"><stop offset="0.01" stop-color="#0094b9"/><stop offset="1" stop-color="#009bc0"/></linearGradient><clipPath id="clip-path-3"><circle class="cls-1" cx="1670.41" cy="492.17" r="211.38"/></clipPath><clipPath id="clip-path-4"><ellipse class="cls-1" cx="1671.83" cy="492.17" rx="127.77" ry="126.06" transform="translate(141.65 1326.31) rotate(-45)"/></clipPath><linearGradient id="linear-gradient-2" x1="-5732.67" y1="-7338.1" x2="-5267.55" y2="-7338.1" gradientTransform="matrix(-0.71, -0.71, -0.71, 0.71, -7405.22, 1789.87)" xlink:href="#linear-gradient"/></defs><title>ciem-illustration</title><g class="cls-2"><rect class="cls-3" x="1370.92" y="1010.58" width="453.25" height="213.69" transform="translate(-322.23 1456.92) rotate(-45)"/><rect class="cls-4" x="1521.28" y="1161.68" width="453.25" height="213.69" transform="translate(-385.03 1607.5) rotate(-45)"/></g><g class="cls-5"><rect class="cls-6" x="1441.3" y="959.5" width="461.39" height="467.64" transform="translate(2886.08 -463.65) rotate(90.72)"/><polygon class="cls-7" points="1434.69 1421.04 1441.79 960.59 1903.74 1425.71 1434.69 1421.04"/></g><path class="cls-8" d="M1728,1138.3a17.77,17.77,0,0,1,0,25.33l-30.47,30.06,30.5,30.1a17.78,17.78,0,0,1,0,25.34,18.38,18.38,0,0,1-25.65,0l-30.5-30.1-30.5,30.1a18.38,18.38,0,0,1-25.65,0,17.81,17.81,0,0,1,0-25.31l30.5-30.09-30.5-30.1a17.78,17.78,0,0,1,0-25.3,18.39,18.39,0,0,1,25.68,0l30.5,30.09,30.47-30.06A18.37,18.37,0,0,1,1728,1138.3Z"/><line class="cls-9" x1="1909.68" y1="1404.46" x2="2209.56" y2="1404.46"/><line class="cls-9" x1="2417.42" y1="1248.47" x2="2209.56" y2="1404.46"/><line class="cls-10" x1="1443.19" y1="287.86" x2="1155.57" y2="287.86"/><line class="cls-10" x1="948.7" y1="445.09" x2="1155.57" y2="287.86"/><rect class="cls-1" x="64.86" y="93.11" width="1403.01" height="1504.87"/><rect class="cls-1" x="1890.89" y="94.4" width="1403.01" height="1504.87"/><rect class="cls-1" x="63.21" y="94.4" width="3231.32" height="1504.87"/><rect class="cls-1" x="64.86" y="93.11" width="260.33" height="1506.15"/><rect class="cls-1" x="1205.89" y="91.83" width="260.33" height="1506.15"/><rect class="cls-1" x="610.05" y="-452.44" width="311.23" height="1404.91" transform="translate(515.65 1015.68) rotate(-90)"/><rect class="cls-1" x="610.05" y="741.2" width="311.23" height="1404.91" transform="translate(-677.99 2209.32) rotate(-90)"/><rect class="cls-1" x="1891.58" y="90.07" width="260.33" height="1506.15"/><rect class="cls-1" x="3032.62" y="88.78" width="260.33" height="1506.15"/><rect class="cls-1" x="2436.77" y="-455.49" width="311.23" height="1404.91" transform="translate(2345.42 2839.35) rotate(-90)"/><rect class="cls-1" x="2436.77" y="738.15" width="311.23" height="1404.91" transform="translate(1151.78 4032.99) rotate(-90)"/><line class="cls-10" x1="326.72" y1="846.83" x2="87.13" y2="846.83"/><line class="cls-9" x1="3270.67" y1="844.83" x2="3031.7" y2="844.83"/><line class="cls-9" x1="3292.94" y1="1599.27" x2="2981.34" y2="1287.67"/><line class="cls-10" x1="379.11" y1="402.15" x2="63.92" y2="93.97"/><path class="cls-9" d="M1366,871.12v346.3c0,151.7,123,274.68,274.68,274.68h67.9c151.7,0,274.68-123,274.68-274.68V871.12"/><path class="cls-10" d="M1983.21,830.12V478.82c0-151.71-123-274.68-274.68-274.68h-67.9c-151.71,0-274.68,123-274.68,274.68v351.3"/><line class="cls-9" x1="3292.94" y1="1599.27" x2="2592.02" y2="1599.27"/><line class="cls-10" x1="764.14" y1="94.4" x2="63.21" y2="94.4"/><line class="cls-11" x1="887.19" y1="1028.55" x2="640.09" y2="1028.55"/><line class="cls-11" x1="887.19" y1="1061.03" x2="640.09" y2="1061.03"/><rect class="cls-11" x="491.55" y="570.77" width="544.17" height="544.17" rx="86.69" transform="translate(1527.28 1685.72) rotate(-180)"/><circle class="cls-12" cx="2582.08" cy="1599.27" r="11.14"/><circle class="cls-12" cx="2972.41" cy="1278.73" r="11.14"/><circle class="cls-13" cx="385.78" cy="408.67" r="11.14"/><circle class="cls-13" cx="775.04" cy="94.4" r="11.14"/><circle class="cls-12" cx="3281.81" cy="844.83" r="11.14"/><circle class="cls-13" cx="76" cy="847.25" r="11.14"/><path class="cls-12" d="M1972.07,850.76c0-6.15,5-10.14,11.14-10.14s11.14,4,11.14,10.14a11.14,11.14,0,1,1-22.28,0Z"/><circle class="cls-14" cx="1365.95" cy="851.52" r="11.14"/><line class="cls-9" x1="2443.54" y1="1599.27" x2="1365.95" y2="1599.27"/><line class="cls-10" x1="912.68" y1="94.4" x2="2020.1" y2="94.4"/><circle class="cls-12" cx="2454.68" cy="1599.27" r="11.14"/><circle class="cls-12" cx="1354.69" cy="1599.27" r="11.14"/><circle class="cls-13" cx="2030.33" cy="94.4" r="11.14"/><circle class="cls-13" cx="901.55" cy="94.4" r="11.14"/><g class="cls-15"><rect class="cls-3" x="1443.26" y="279.15" width="453.25" height="213.69" transform="translate(3339.78 771.99) rotate(-180)"/><rect class="cls-4" x="1443.78" y="492.32" width="453.25" height="213.69" transform="translate(3340.82 1198.32) rotate(-180)"/></g><g class="cls-16"><rect class="cls-6" x="1440.22" y="258.48" width="461.39" height="467.64" transform="translate(818.48 -1026.8) rotate(44.28)"/><polygon class="cls-17" points="1999.73 485.52 1669.12 164.96 1671.36 820.5 1999.73 485.52"/></g><path class="cls-8" d="M1592.42,493a17.79,17.79,0,0,0,17.94,17.89l42.81-.28-.29,42.84a17.8,17.8,0,0,0,17.94,17.9A18.36,18.36,0,0,0,1689,553.18l.29-42.85,42.85-.29a18.36,18.36,0,0,0,18.14-18.13,17.82,17.82,0,0,0-17.9-17.9l-42.85.29.29-42.84a17.77,17.77,0,0,0-17.89-17.9,18.39,18.39,0,0,0-18.18,18.14l-.29,42.85-42.8.28A18.39,18.39,0,0,0,1592.42,493Z"/><polygon class="cls-18" points="792.16 635.63 735.12 635.63 688.98 669.16 671.36 723.4 688.98 777.65 735.12 811.17 792.16 811.17 838.3 777.65 855.93 723.4 838.3 669.16 792.16 635.63"/><polygon class="cls-18" points="914.09 971.15 613.19 971.15 641.92 882.72 717.15 828.07 810.13 828.07 885.36 882.72 914.09 971.15"/><circle class="cls-1" cx="231.47" cy="1433.37" r="165.45"/><circle class="cls-1" cx="726.64" cy="1475.35" r="120.87"/><circle class="cls-1" cx="1117.81" cy="1508.14" r="88.08"/><circle class="cls-19" cx="766.4" cy="845.31" r="439.68"/><circle class="cls-9" cx="2592.02" cy="844.83" r="439.68"/><line class="cls-9" x1="2716.77" y1="1037.21" x2="2469.66" y2="1037.21"/><line class="cls-9" x1="2716.77" y1="1069.69" x2="2469.66" y2="1069.69"/><rect class="cls-9" x="2321.13" y="579.44" width="544.17" height="544.17" rx="86.69" transform="translate(5186.43 1703.04) rotate(-180)"/><polygon class="cls-20" points="2621.73 644.29 2564.7 644.29 2518.55 677.82 2500.93 732.06 2518.55 786.31 2564.7 819.83 2621.73 819.83 2667.88 786.31 2685.5 732.06 2667.88 677.82 2621.73 644.29"/><polygon class="cls-20" points="2743.66 979.81 2442.77 979.81 2471.5 891.38 2546.73 836.73 2639.71 836.73 2714.93 891.38 2743.66 979.81"/><rect class="cls-19" x="78.14" y="1290.32" width="306.66" height="306.66" rx="48.85" transform="translate(462.94 2887.3) rotate(-180)"/><rect class="cls-19" x="605.76" y="1354.48" width="241.74" height="241.74" rx="38.51" transform="translate(1453.27 2950.7) rotate(-180)"/><rect class="cls-19" x="1029.73" y="1420.06" width="176.16" height="176.16" rx="28.06" transform="translate(2235.62 3016.28) rotate(-180)"/><rect class="cls-9" x="2987.03" y="91.81" width="306.66" height="306.66" rx="48.85"/><rect class="cls-9" x="2524.33" y="92.57" width="241.74" height="241.74" rx="38.51"/><rect class="cls-9" x="2165.95" y="92.57" width="176.16" height="176.16" rx="28.06"/><polygon class="cls-21" points="249.53 1334.38 213.41 1334.38 184.19 1355.61 173.03 1389.95 184.19 1424.3 213.41 1445.53 249.53 1445.53 278.75 1424.3 289.91 1389.95 278.75 1355.61 249.53 1334.38"/><polygon class="cls-21" points="326.74 1546.83 136.2 1546.83 154.4 1490.83 202.03 1456.23 260.91 1456.23 308.55 1490.83 326.74 1546.83"/><polygon class="cls-21" points="741.71 1386.65 711.56 1386.65 687.16 1404.38 677.85 1433.06 687.16 1461.74 711.56 1479.46 741.71 1479.46 766.11 1461.74 775.43 1433.06 766.11 1404.38 741.71 1386.65"/><polygon class="cls-21" points="806.18 1564.04 647.09 1564.04 662.28 1517.29 702.06 1488.39 751.22 1488.39 790.99 1517.29 806.18 1564.04"/><polygon class="cls-21" points="1128.93 1442.65 1106.67 1442.65 1088.65 1455.74 1081.78 1476.91 1088.65 1498.09 1106.67 1511.17 1128.93 1511.17 1146.94 1498.09 1153.83 1476.91 1146.94 1455.74 1128.93 1442.65"/><polygon class="cls-21" points="1176.53 1573.63 1059.07 1573.63 1070.29 1539.1 1099.65 1517.77 1135.95 1517.77 1165.31 1539.1 1176.53 1573.63"/><polygon class="cls-22" points="3158.43 138.91 3122.31 138.91 3093.09 160.14 3081.93 194.49 3093.09 228.84 3122.31 250.07 3158.43 250.07 3187.64 228.84 3198.8 194.49 3187.64 160.14 3158.43 138.91"/><polygon class="cls-22" points="3235.63 351.37 3045.1 351.37 3063.29 295.37 3110.93 260.76 3169.8 260.76 3217.44 295.37 3235.63 351.37"/><polygon class="cls-22" points="2660.28 124.75 2630.13 124.75 2605.73 142.47 2596.41 171.15 2605.73 199.83 2630.13 217.56 2660.28 217.56 2684.68 199.83 2693.99 171.15 2684.68 142.47 2660.28 124.75"/><polygon class="cls-22" points="2724.74 302.14 2565.66 302.14 2580.85 255.38 2620.62 226.49 2669.78 226.49 2709.55 255.38 2724.74 302.14"/><polygon class="cls-22" points="2265.16 115.17 2242.89 115.17 2224.88 128.25 2218 149.43 2224.88 170.6 2242.89 183.69 2265.16 183.69 2283.17 170.6 2290.05 149.43 2283.17 128.25 2265.16 115.17"/><polygon class="cls-22" points="2312.76 246.14 2195.3 246.14 2206.51 211.62 2235.88 190.29 2272.18 190.29 2301.54 211.62 2312.76 246.14"/><polygon class="cls-19" points="785.62 860.85 775.13 887.46 754.16 887.46 742.65 860.85 764.21 844.98 785.62 860.85"/><polygon class="cls-19" points="775.13 887.46 785.62 915.88 764.4 954.24 742.65 915.64 754.16 887.46 775.13 887.46"/><polygon class="cls-20" points="2614.7 869.51 2604.21 896.12 2583.24 896.12 2571.73 869.51 2593.28 853.64 2614.7 869.51"/><polygon class="cls-20" points="2604.21 896.12 2614.7 924.54 2593.48 962.9 2571.73 924.31 2583.24 896.12 2604.21 896.12"/></svg>