<?xml version="1.0" encoding="utf-8"?>
<!-- Generator: Adobe Illustrator 24.0.0, SVG Export Plug-In . SVG Version: 6.00 Build 0)  -->
<svg version="1.1" id="Layer_1" xmlns="http://www.w3.org/2000/svg" xmlns:xlink="http://www.w3.org/1999/xlink" x="0px" y="0px"
	 viewBox="0 0 3353 1685" style="enable-background:new 0 0 3353 1685;" xml:space="preserve">
<style type="text/css">
	.st0{fill:#FFFFFF;}
	.st1{fill:none;}
	.st2{fill:none;stroke:#004166;stroke-width:4;stroke-miterlimit:10;}
	.st3{fill:#1BC1E5;}
	.st4{fill:#094063;}
	.st5{fill:none;stroke:#00C4E8;stroke-width:5;stroke-miterlimit:10;}
	.st6{fill:none;stroke:#00CCFF;stroke-width:4;stroke-miterlimit:10;}
	.st7{fill:none;stroke:#00C4E8;stroke-width:4;stroke-miterlimit:10;}
	.st8{fill:none;stroke:#19B7D9;stroke-width:4;stroke-linecap:round;stroke-linejoin:round;stroke-miterlimit:10;}
	.st9{fill:none;stroke:#064061;stroke-width:5;stroke-linecap:round;stroke-linejoin:round;stroke-miterlimit:10;}
	.st10{fill:none;stroke:#003366;stroke-width:5;stroke-linecap:round;stroke-linejoin:round;stroke-miterlimit:10;}
	.st11{fill:#FFFFFF;stroke:#00C4E8;stroke-width:4;stroke-miterlimit:10;}
	.st12{fill:#FFFFFF;stroke:#094063;stroke-width:4;stroke-miterlimit:10;}
	.st13{fill:none;stroke:#1BC1E5;stroke-width:5;stroke-miterlimit:10;}
	.st14{fill:none;stroke:#1BC1E5;stroke-width:5;stroke-linecap:round;stroke-miterlimit:10;}
	.st15{fill:none;stroke:#083F61;stroke-width:5;stroke-linecap:round;stroke-linejoin:round;stroke-miterlimit:10;}
	.st16{fill:none;stroke:#083F61;stroke-width:4;stroke-linecap:round;stroke-linejoin:round;stroke-miterlimit:10;}
	.st17{fill:none;stroke:#1BC1E5;stroke-width:4;stroke-linecap:round;stroke-miterlimit:10;}
	.st18{fill:none;stroke:#1BC1E5;stroke-width:4;stroke-miterlimit:10;}
	.st19{fill:none;stroke:#1BC1E5;stroke-width:4;stroke-linecap:round;stroke-linejoin:round;stroke-miterlimit:10;}
	.st20{fill:none;stroke:#1BC1E5;stroke-width:3.5;stroke-linecap:round;stroke-linejoin:round;stroke-miterlimit:10;}
	.st21{fill:none;stroke:#083F61;stroke-width:3.5;stroke-linecap:round;stroke-linejoin:round;stroke-miterlimit:10;}
	.st22{fill:none;stroke:#2D4583;stroke-width:3;stroke-linecap:round;stroke-linejoin:round;stroke-miterlimit:10;}
	.st23{fill:none;stroke:#2D4583;stroke-width:3.5;stroke-linecap:round;stroke-linejoin:round;stroke-miterlimit:10;}
	.st24{fill:#FFFFFF;stroke:#083F61;stroke-width:3;stroke-linecap:round;stroke-linejoin:round;stroke-miterlimit:10;}
	.st25{clip-path:url(#SVGID_2_);}
	.st26{fill:url(#SVGID_3_);}
	.st27{fill:#93D6E2;}
	.st28{fill:#FDFDFD;stroke:#FFFFFF;stroke-width:10;stroke-miterlimit:10;}
	.st29{fill:#FFFFFF;stroke:#1BC1E5;stroke-width:3.5;stroke-linecap:round;stroke-linejoin:round;stroke-miterlimit:10;}
	.st30{fill:none;stroke:#083F61;stroke-width:3;stroke-linecap:round;stroke-linejoin:round;stroke-miterlimit:10;}
	.st31{fill:none;stroke:#083F61;stroke-width:2.999;stroke-miterlimit:10;}
	.st32{fill:#FFFFFF;stroke:#083F61;stroke-width:5;stroke-linecap:round;stroke-linejoin:round;stroke-miterlimit:10;}
	.st33{fill:#FFFFFF;stroke:#1BC1E5;stroke-width:5;stroke-linecap:round;stroke-linejoin:round;stroke-miterlimit:10;}
	.st34{fill:url(#SVGID_4_);}
	.st35{fill:none;stroke:#19B7D9;stroke-width:5;stroke-linecap:round;stroke-linejoin:round;stroke-miterlimit:10;}
	.st36{fill:none;stroke:#094063;stroke-width:5;stroke-miterlimit:10;}
	.st37{fill:#FFFFFF;stroke:#00CCFF;stroke-width:4;stroke-miterlimit:10;}
	.st38{fill:#064163;stroke:#094063;stroke-width:2;stroke-miterlimit:10;}
	.st39{fill:none;stroke:#003366;stroke-width:4;stroke-miterlimit:10;}
	.st40{fill:#FFFFFF;stroke:#003366;stroke-width:4;stroke-miterlimit:10;}
	.st41{clip-path:url(#SVGID_6_);}
	.st42{fill:url(#SVGID_7_);}
	.st43{clip-path:url(#SVGID_9_);}
	.st44{fill:url(#SVGID_10_);}
	.st45{clip-path:url(#SVGID_12_);}
	.st46{fill:url(#SVGID_13_);}
	.st47{clip-path:url(#SVGID_15_);}
	.st48{fill:url(#SVGID_16_);}
	.st49{clip-path:url(#SVGID_18_);}
	.st50{fill:url(#SVGID_19_);}
	.st51{clip-path:url(#SVGID_21_);}
	.st52{clip-path:url(#SVGID_23_);}
	.st53{fill:#7DD7E3;}
	.st54{fill:url(#SVGID_24_);}
	.st55{fill:none;stroke:#063F61;stroke-width:5;stroke-miterlimit:10;}
	.st56{fill:none;stroke:#1BC1E5;stroke-width:3;stroke-linecap:round;stroke-linejoin:round;stroke-miterlimit:10;}
	.st57{fill:none;stroke:#1BB8DA;stroke-width:3;stroke-linecap:round;stroke-linejoin:round;stroke-miterlimit:10;}
	.st58{fill:none;stroke:#93D6E2;stroke-width:3;stroke-linecap:round;stroke-linejoin:round;stroke-miterlimit:10;}
	.st59{clip-path:url(#SVGID_26_);}
	.st60{clip-path:url(#SVGID_28_);fill:#094063;}
	.st61{fill:none;stroke:#F4F4F4;stroke-width:13;stroke-linecap:round;stroke-linejoin:round;stroke-miterlimit:10;}
	.st62{fill:none;stroke:#083F61;stroke-width:13;stroke-linecap:round;stroke-linejoin:round;stroke-miterlimit:10;}
	.st63{fill:#064061;}
	.st64{fill:#FFFFFF;stroke:#F4F4F4;stroke-width:6;stroke-linecap:round;stroke-linejoin:round;stroke-miterlimit:10;}
	.st65{fill:none;stroke:#1BC1E5;stroke-width:18;stroke-linecap:round;stroke-linejoin:round;stroke-miterlimit:10;}
	.st66{fill:none;stroke:#083F61;stroke-width:2.8883;stroke-linecap:round;stroke-linejoin:round;stroke-miterlimit:10;}
	.st67{fill:none;stroke:#1BC1E5;stroke-width:3;stroke-linecap:round;stroke-miterlimit:10;}
	.st68{fill:#FFFFFF;stroke:#1BC1E5;stroke-width:3;stroke-linecap:round;stroke-linejoin:round;stroke-miterlimit:10;}
	.st69{clip-path:url(#SVGID_30_);}
	.st70{fill:#004166;}
	.st71{fill:#00C4E8;}
	.st72{clip-path:url(#SVGID_30_);fill:none;stroke:#FFFFFF;stroke-width:4;stroke-miterlimit:10;}
	.st73{clip-path:url(#SVGID_32_);}
	.st74{clip-path:url(#SVGID_32_);fill:url(#SVGID_33_);}
	.st75{fill:#FFFFFF;stroke:#1BC1E5;stroke-width:3.5;stroke-linecap:round;stroke-miterlimit:10;}
	.st76{fill:#FFFFFF;stroke:#1BC1E5;stroke-width:4;stroke-linecap:round;stroke-miterlimit:10;}
	.st77{fill:none;stroke:#004166;stroke-width:2.8883;stroke-miterlimit:10;}
	.st78{fill:none;stroke:#00C4E8;stroke-width:2.8883;stroke-miterlimit:10;}
	.st79{fill:none;stroke:#074063;stroke-width:2.8883;stroke-linecap:round;stroke-miterlimit:10;}
	.st80{fill:none;stroke:#00B9DC;stroke-width:2.8883;stroke-linecap:round;stroke-linejoin:round;stroke-miterlimit:10;}
	.st81{fill:none;stroke:#004064;stroke-width:2.8883;stroke-linecap:round;stroke-linejoin:round;stroke-miterlimit:10;}
	.st82{fill:#FCFCFC;stroke:#004166;stroke-width:2.8883;stroke-miterlimit:10;}
	.st83{fill:#FAFBFC;stroke:#00C4E8;stroke-width:2.8883;stroke-miterlimit:10;}
	.st84{fill:none;stroke:#083F61;stroke-width:3.3376;stroke-linecap:round;stroke-linejoin:round;stroke-miterlimit:10;}
	.st85{fill:none;stroke:#1BC1E5;stroke-width:3.3376;stroke-linecap:round;stroke-miterlimit:10;}
	.st86{fill:none;stroke:#083F61;stroke-width:2.7857;stroke-linecap:round;stroke-linejoin:round;stroke-miterlimit:10;}
	.st87{fill:none;stroke:#083F61;stroke-width:2.7481;stroke-linecap:round;stroke-linejoin:round;stroke-miterlimit:10;}
	.st88{fill:#FFFFFF;stroke:#1BC1E5;stroke-width:2.8883;stroke-linecap:round;stroke-linejoin:round;stroke-miterlimit:10;}
	.st89{fill:#FFFFFF;stroke:#004166;stroke-width:2.8883;stroke-miterlimit:10;}
	.st90{fill:none;stroke:#063F61;stroke-width:3;stroke-miterlimit:10;}
	.st91{fill:none;stroke:#083F61;stroke-width:3.5658;stroke-linecap:round;stroke-linejoin:round;stroke-miterlimit:10;}
	.st92{fill:none;stroke:#1BC1E5;stroke-width:2.409;stroke-miterlimit:10;}
	.st93{fill:none;stroke:#1BC1E5;stroke-width:2.496;stroke-miterlimit:10;}
	.st94{fill:#FFFFFF;stroke:#063F61;stroke-width:5;stroke-miterlimit:10;}
	.st95{fill:#3399FF;}
	.st96{fill:none;stroke:#094063;stroke-width:3;stroke-miterlimit:10;}
	.st97{fill:#FFFFFF;stroke:#19B7D9;stroke-width:4;stroke-linecap:round;stroke-linejoin:round;stroke-miterlimit:10;}
	.st98{opacity:0.26;}
	.st99{fill:none;stroke:#083F61;stroke-width:5.1916;stroke-linecap:round;stroke-linejoin:round;stroke-miterlimit:10;}
	.st100{clip-path:url(#SVGID_35_);}
	.st101{clip-path:url(#SVGID_35_);fill:none;stroke:#FFFFFF;stroke-width:4;stroke-miterlimit:10;}
	.st102{clip-path:url(#SVGID_37_);}
	.st103{clip-path:url(#SVGID_37_);fill:url(#SVGID_38_);}
	.st104{clip-path:url(#SVGID_40_);}
	.st105{clip-path:url(#SVGID_42_);}
	.st106{fill:url(#SVGID_43_);}
	.st107{fill:#FFFFFF;stroke:#083F61;stroke-width:3.5;stroke-linecap:round;stroke-linejoin:round;stroke-miterlimit:10;}
	.st108{fill:#FFFFFF;stroke:#1BC1E5;stroke-width:5;stroke-linecap:round;stroke-miterlimit:10;}
	.st109{fill:#FFFFFF;stroke:#1BC1E5;stroke-width:4.2819;stroke-linecap:round;stroke-miterlimit:10;}
	.st110{fill:none;stroke:#074063;stroke-width:4;stroke-linecap:round;stroke-miterlimit:10;}
	.st111{fill:#FCFCFC;stroke:#004166;stroke-width:4;stroke-miterlimit:10;}
	.st112{fill:#FFFFFF;stroke:#004166;stroke-width:4;stroke-miterlimit:10;}
	.st113{fill:none;stroke:#1BC1E5;stroke-width:3.4;stroke-linecap:round;stroke-linejoin:round;stroke-miterlimit:10;}
	.st114{fill:none;stroke:#1BC1E5;stroke-width:3.5229;stroke-linecap:round;stroke-linejoin:round;stroke-miterlimit:10;}
	.st115{clip-path:url(#SVGID_45_);}
	.st116{clip-path:url(#SVGID_45_);fill:none;stroke:#FFFFFF;stroke-width:4;stroke-miterlimit:10;}
	.st117{clip-path:url(#SVGID_47_);}
	.st118{clip-path:url(#SVGID_47_);fill:url(#SVGID_48_);}
	.st119{fill:none;stroke:#1BC1E5;stroke-width:4.67;stroke-linecap:round;stroke-miterlimit:10;}
	.st120{fill:#FFFFFF;stroke:#1BC1E5;stroke-width:4.8722;stroke-linecap:round;stroke-miterlimit:10;}
	.st121{fill:none;stroke:#1BC1E5;stroke-width:4.1532;stroke-linecap:round;stroke-miterlimit:10;}
	.st122{fill:none;stroke:#1BC1E5;stroke-width:4.6913;stroke-linecap:round;stroke-miterlimit:10;}
	.st123{fill:none;stroke:#083F61;stroke-width:4.1532;stroke-linecap:round;stroke-linejoin:round;stroke-miterlimit:10;}
	.st124{fill:none;stroke:#1BC1E5;stroke-width:4.42;stroke-linecap:round;stroke-miterlimit:10;}
	.st125{fill:none;stroke:#1BC1E5;stroke-width:2.7163;stroke-linecap:round;stroke-linejoin:round;stroke-miterlimit:10;}
	.st126{fill:none;stroke:#1BC1E5;stroke-width:2.8034;stroke-linecap:round;stroke-linejoin:round;stroke-miterlimit:10;}
	.st127{fill:none;stroke:#1BC1E5;stroke-width:3.1149;stroke-linecap:round;stroke-linejoin:round;stroke-miterlimit:10;}
	.st128{fill:#FFFFFF;stroke:#1BC1E5;stroke-width:3.1149;stroke-linecap:round;stroke-miterlimit:10;}
	.st129{fill:none;stroke:#1BC1E5;stroke-width:5.1916;stroke-linecap:round;stroke-miterlimit:10;}
	.st130{fill:#FCFCFC;stroke:#004166;stroke-width:5.1916;stroke-miterlimit:10;}
	.st131{clip-path:url(#SVGID_50_);}
	.st132{clip-path:url(#SVGID_50_);fill:none;stroke:#FFFFFF;stroke-width:4;stroke-miterlimit:10;}
	.st133{clip-path:url(#SVGID_52_);}
	.st134{clip-path:url(#SVGID_52_);fill:url(#SVGID_53_);}
	.st135{fill:none;stroke:#083F61;stroke-width:3.7507;stroke-linecap:round;stroke-linejoin:round;stroke-miterlimit:10;}
	.st136{fill:none;stroke:#083F61;stroke-width:4.0119;stroke-linecap:round;stroke-linejoin:round;stroke-miterlimit:10;}
	.st137{fill:#FFFFFF;stroke:#1BC1E5;stroke-width:4.7064;stroke-linecap:round;stroke-miterlimit:10;}
	.st138{fill:#FFFFFF;stroke:#1BC1E5;stroke-width:5.0149;stroke-linecap:round;stroke-miterlimit:10;}
	.st139{fill:#FFFFFF;stroke:#1BC1E5;stroke-width:4.2696;stroke-linecap:round;stroke-miterlimit:10;}
	.st140{fill:none;stroke:#004166;stroke-width:3.5092;stroke-miterlimit:10;}
	.st141{fill:none;stroke:#00C4E8;stroke-width:3.5092;stroke-miterlimit:10;}
	.st142{fill:none;stroke:#074063;stroke-width:3.5092;stroke-linecap:round;stroke-miterlimit:10;}
	.st143{fill:#FCFCFC;stroke:#004166;stroke-width:3.5092;stroke-miterlimit:10;}
	.st144{fill:#FFFFFF;stroke:#004166;stroke-width:3.5092;stroke-miterlimit:10;}
	.st145{fill:#FCFCFC;stroke:#004166;stroke-width:3.5937;stroke-miterlimit:10;}
	.st146{fill:#FCFCFC;stroke:#004166;stroke-width:3.4916;stroke-miterlimit:10;}
	.st147{fill:none;stroke:#004166;stroke-width:3.1094;stroke-miterlimit:10;}
	.st148{fill:none;stroke:#1BC1E5;stroke-width:3.0003;stroke-linecap:round;stroke-linejoin:round;stroke-miterlimit:10;}
	.st149{fill:none;stroke:#1BC1E5;stroke-width:3.1024;stroke-linecap:round;stroke-linejoin:round;stroke-miterlimit:10;}
	.st150{fill:none;stroke:#1BC1E5;stroke-width:4.1459;stroke-linecap:round;stroke-linejoin:round;stroke-miterlimit:10;}
	.st151{fill:#FFFFFF;stroke:#1BC1E5;stroke-width:3.6644;stroke-linecap:round;stroke-miterlimit:10;}
	.st152{fill:none;stroke:#004166;stroke-width:5.1916;stroke-miterlimit:10;}
	.st153{fill:none;stroke:#00C4E8;stroke-width:5.1916;stroke-miterlimit:10;}
	.st154{fill:none;stroke:#074063;stroke-width:5.1916;stroke-linecap:round;stroke-miterlimit:10;}
	.st155{fill:#FFFFFF;stroke:#004166;stroke-width:5.1916;stroke-miterlimit:10;}
	.st156{fill:none;stroke:#00CCFF;stroke-width:5.5902;stroke-miterlimit:10;}
	.st157{fill:#FFFFFF;stroke:#00CCFF;stroke-width:5.5902;stroke-miterlimit:10;}
	.st158{fill:none;stroke:#1BC1E5;stroke-width:3.5647;stroke-linecap:round;stroke-linejoin:round;stroke-miterlimit:10;}
	.st159{fill:none;stroke:#1BC1E5;stroke-width:3.5;stroke-linecap:round;stroke-miterlimit:10;}
	.st160{fill:#FFFFFF;stroke:#1BC1E5;stroke-width:2.8;stroke-linecap:round;stroke-miterlimit:10;}
	.st161{fill:none;stroke:#1BC1E5;stroke-width:2.8;stroke-linecap:round;stroke-miterlimit:10;}
	.st162{fill:none;stroke:#064061;stroke-width:3.5;stroke-linecap:round;stroke-linejoin:round;stroke-miterlimit:10;}
	.st163{fill:none;stroke:#1CC1E4;stroke-width:3.5;stroke-linecap:round;stroke-linejoin:round;stroke-miterlimit:10;}
	.st164{fill:none;stroke:#1BC1E5;stroke-width:2.7304;stroke-linecap:round;stroke-miterlimit:10;}
</style>
<rect class="st0" width="3353" height="1685"/>
<g>
	<path class="st3" d="M764.1,568.65l0.13,256.97l-243.49,0.12c-0.92-20.76-5.73-134.84-3.03-209.49
		C517.71,616.25,700.77,622.98,764.1,568.65z"/>
	<path class="st3" d="M1015.06,825.5l-243.59,0.12l-0.13-256.06c63.43,54.26,246.44,47.35,246.44,47.35
		C1020.56,690.49,1016.06,802.5,1015.06,825.5z"/>
	<path class="st4" d="M764.23,831.63l0.17,328.21l-0.43,0c-10.17-3.91-206.03-81.72-242.8-328.09L764.23,831.63z"/>
	<path class="st4" d="M1014.73,831.5c-34.65,236.53-215.9,318.3-240.35,328.33l-2.73,0l-0.17-328.21L1014.73,831.5z"/>
</g>
<g>
	<polygon class="st13" points="3119.84,541.89 3119.84,742.11 2942.45,842.45 2773.04,742.11 2773.04,541.89 2946.44,441.77 	"/>
	<line class="st14" x1="2315.77" y1="476.23" x2="2197.84" y2="408.31"/>
	<line class="st14" x1="2485.26" y1="371.24" x2="2485.26" y2="242.53"/>
	<line class="st14" x1="2772.39" y1="407.86" x2="2653.65" y2="479.07"/>
	<line class="st14" x1="2316.64" y1="669.07" x2="2197.66" y2="739.66"/>
	<line class="st14" x1="2773.58" y1="742.44" x2="2649.61" y2="671.04"/>
	<polygon class="st15" points="2197.84,408.31 2197.84,739.87 1910.7,905.65 1623.57,739.87 1623.57,408.31 1910.7,242.53 	"/>
	<polygon class="st15" points="2772.39,407.86 2773.04,742.11 2485.26,905.19 2198.12,739.41 2198.12,407.86 2485.26,242.08 	"/>
	<polygon class="st13" points="2115.69,454.91 2115.69,690.89 1911.32,808.89 1706.95,690.89 1706.95,454.91 1911.32,336.91 	"/>
	<polygon class="st13" points="1910.71,1069.79 1911.26,1236.16 1767.28,1318.45 1623.57,1234.01 1623.83,1067.27 1767.55,985.93 	
		"/>
	<polygon class="st15" points="2942.45,842.45 2942.45,1040.03 2770.72,1139.88 2599,1040.03 2599,840.32 2773.04,742.11 	"/>
	<line class="st13" x1="2197.66" y1="739.66" x2="1910.22" y2="905.91"/>
	<polygon class="st15" points="2485.6,905.27 2485.6,1236.82 2198.15,1402.6 1910.7,1236.82 1910.7,905.27 2197.66,739.66 	"/>
	<polygon class="st15" points="3293.97,842.45 3293.97,1040.37 3117.12,1141.39 2942.45,1040.37 2942.45,842.45 3119.84,742.11 	"/>
	<polygon class="st15" points="2770.72,1139.88 2767.77,1343.09 2942.45,1443.94 3117.12,1343.09 3117.12,1141.39 2942.45,1040.54 	
		"/>
</g>
<line class="st17" x1="2485.86" y1="756.35" x2="2486.09" y2="902.76"/>
<path class="st15" d="M227.17,1297.96c-12.41-14.28-54.64-72.59-54.64-72.59c-71.06-110.22-112.3-241.48-112.3-382.38
	c0-390.26,316.37-706.63,706.63-706.63c121.49,0,235.81,30.66,335.66,84.66c0,0,52.4,27.33,107.77,70.39"/>
<path class="st13" d="M413.52,369.99c98.52-73.72,220.83-117.37,353.35-117.37c326.06,0,590.37,264.32,590.37,590.38
	c0,292.9-213.29,535.97-493.02,582.39"/>
<path class="st15" d="M292.15,749.86c42.51-223.46,238.88-392.39,474.71-392.39c266.89,0,483.24,216.35,483.24,483.24
	c0,156.3-67.24,279.16-163.55,362.48l-83.25-82.58"/>
<path class="st15" d="M769.22,524.12c0,0-72.11,64.6-290.4,57.73c-2.09,114-11.38,230.88,28.32,339.68
	c34.68,95.04,96.2,179.11,179.57,236.47c25.49,17.54,52.7,32.51,81,44.92c0,0,281.13-108.33,292.06-425.93
	c0,0,3.63-136.11-0.1-191.95C1059.68,585.05,852.5,592.13,769.22,524.12z"/>
<path class="st15" d="M1206.72,449.21l82.31-82.31c0,0,125.17,124.37,169.56,331.05c0,0,13.4,75.98,14.9,145.04
	c8.5,390.17-320.68,710.44-706.63,706.63c-228.22-2.25-355.02-87.59-476.39-184.16l82.61-82.61"/>
<path class="st15" d="M399.1,834.27l-115.48,0.37v6.07c0,266.89,216.35,483.24,483.24,483.24c83.4,0,161.87-21.13,230.34-58.32"/>
<path class="st14" d="M404.44,521.07l-74.87-74.87c-99.86,112.14-153.08,228.02-153.08,396.79c0,326.06,264.32,590.38,590.38,590.38
	v-109.41"/>
<polyline class="st15" points="1623.57,1604.27 2208.1,1604.27 2486.1,1447.27 "/>
<line class="st18" x1="1687.87" y1="868.74" x2="1857.46" y2="955.72"/>
<line class="st18" x1="2544.24" y1="939.78" x2="2544.24" y2="1139.88"/>
<line class="st18" x1="2830.91" y1="433.62" x2="2977.1" y2="351.27"/>
<path class="st19" d="M2325.33,572.08v-3.33c0-3.46,2.8-6.26,6.26-6.26h68.83c3.46,0,6.26,2.8,6.26,6.26v3.33
	c0,3.46-2.8,6.26-6.26,6.26h-68.83C2328.13,578.34,2325.33,575.54,2325.33,572.08z"/>
<path class="st20" d="M2645.03,568.75v3.33c0,3.46-2.8,6.26-6.26,6.26h-68.83c-3.46,0-6.26-2.8-6.26-6.26v-3.33
	c0-3.46,2.8-6.26,6.26-6.26h68.83C2642.22,562.49,2645.03,565.3,2645.03,568.75z"/>
<path class="st21" d="M2485.03,445.63c-68.86,0-124.67,55.82-124.67,124.67s55.82,124.67,124.67,124.67s124.67-55.82,124.67-124.67
	S2553.88,445.63,2485.03,445.63z M2485,680.17c-60.69,0-109.89-49.2-109.89-109.9c0-60.69,49.2-109.89,109.89-109.89
	c60.7,0,109.9,49.2,109.9,109.89C2594.91,630.97,2545.7,680.17,2485,680.17z"/>
<path class="st20" d="M2486.44,489.6h-3.33c-3.46,0-6.26-2.8-6.26-6.26v-68.83c0-3.46,2.8-6.26,6.26-6.26h3.33
	c3.46,0,6.26,2.8,6.26,6.26v68.83C2492.7,486.8,2489.9,489.6,2486.44,489.6z"/>
<path class="st20" d="M2483.11,646.01h3.33c3.46,0,6.26,2.8,6.26,6.26v68.83c0,3.46-2.8,6.26-6.26,6.26h-3.33
	c-3.46,0-6.26-2.8-6.26-6.26v-68.83C2476.85,648.82,2479.65,646.01,2483.11,646.01z"/>
<g>
	<path class="st20" d="M1900.74,486.44c46.03,0.26,82.19,31.62,88.4,74.48c1.87,12.87,0.6,25.51-3.2,37.98
		c-8.05,26.43-20.97,49.94-40.76,69.46c-8.21,8.1-17.19,15.22-26.99,21.3c-3.94,2.45-8.36,1.67-10.5-1.81
		c-2.07-3.37-1.01-7.13,3.01-9.66c17.03-10.73,31.3-24.32,42.52-41.02c10.86-16.17,18.67-33.74,21.95-52.96
		c6.53-38.19-20.83-76.16-59.08-82.63c-37.75-6.39-73.36,15.96-83.28,52.17c-1.07,3.91-0.74,7.33,2.32,10.18
		c2.66,2.47,5.78,3.21,9.23,2.02c3.32-1.15,5.11-3.61,6.09-6.96c5.03-17.05,15.52-29.61,32.08-36.15
		c21.02-8.3,40.74-5.06,57.48,10.18c16.82,15.32,21.83,34.73,15.57,56.56c-6.53,22.8-18.19,42.68-35.75,58.85
		c-1.37,1.26-3.34,2.24-5.16,2.55c-2.89,0.49-5.12-1.04-6.43-3.7c-1.21-2.46-0.7-5.49,1.33-7.63c3.26-3.44,6.77-6.68,9.85-10.28
		c12.53-14.65,20.94-31.47,24.42-50.38c3.8-20.62-10.58-40.87-31.59-45.74c-20.34-4.71-41.67,7.39-47.73,27.25
		c-1.76,5.76-4.06,11.01-8.95,14.82c-7.45,5.8-17.85,6.4-25.9,1.43c-8.05-4.97-12.36-14.92-10.41-24.08
		c6.81-32.04,35.2-59.1,68.03-64.68C1892.62,487.11,1898.03,486.75,1900.74,486.44z"/>
	<path class="st20" d="M2024.6,569.32c0.14,0.94,0.25,1.86,0.37,2.72c1.87,12.87,0.6,25.51-3.2,37.98
		c-8.05,26.43-20.97,49.94-40.76,69.46c-8.21,8.1-17.19,15.22-26.99,21.3c-3.94,2.45-8.36,1.67-10.5-1.81
		c-2.07-3.37-1.01-7.13,3.01-9.66c17.03-10.73,31.3-24.32,42.52-41.02c10.86-16.17,18.67-33.74,21.95-52.96
		c0.82-4.8,1.12-9.7,0.89-14.57c-0.11-2.34-0.34-4.67-0.68-6.98c-0.45-3-1.06-6.53,0.25-9.4c1.25-2.73,4.47-3.85,7.28-3.22
		C2022.68,562.02,2024.06,565.72,2024.6,569.32z"/>
	<path class="st20" d="M1839.11,649.22c-0.85,0-1.71,0.02-2.56,0c-4.14-0.14-6.88-2.82-6.92-6.75c-0.04-3.96,2.64-6.45,6.75-6.96
		c7.41-0.92,15.05-1.25,22.12-3.39c25.65-7.75,42.73-24.77,51.65-50c0.69-1.97,1.34-3.95,1.9-5.96c1.45-5.15-1.08-10.02-5.99-11.59
		c-4.81-1.54-9.77,1.06-11.41,6.2c-2.29,7.16-4.75,14.23-9.13,20.43c-11.8,16.73-27.95,25.46-48.42,26.08
		c-5.1,0.15-8.16-3.39-7.37-8.15c0.56-3.43,3.2-5.36,7.52-5.51c13.08-0.45,24.08-5.47,32.95-15.1c5.39-5.85,8.72-12.82,10.86-20.41
		c1.56-5.57,4.34-10.27,9.21-13.59c7.82-5.33,18.51-5.3,26.23,0.12c7.58,5.33,11.29,15.01,8.71,24.15
		c-10.61,37.68-34.77,61.11-73.37,69.08c-4.16,0.86-8.47,1.03-12.7,1.53C1839.13,649.33,1839.12,649.27,1839.11,649.22z"/>
	<path class="st20" d="M1903.07,454.77c50.87,0,95.73,31.59,112.32,78.61c0.65,1.85,0.74,4.14,0.33,6.06
		c-0.57,2.68-3.38,4.33-6.32,4.41c-3.01,0.08-5.32-1.45-6.43-4.62c-4.42-12.57-10.64-24.12-19.36-34.21
		c-18.89-21.84-42.76-34.02-71.56-36.52c-13.23-1.15-26.1,0.64-38.82,4.2c-5.14,1.44-9.61-2.52-8.72-7.58
		c0.56-3.18,2.79-4.78,5.74-5.62C1881.27,456.37,1892.48,454.64,1903.07,454.77z"/>
	<path class="st20" d="M1832.67,494.04c-0.9,1.6-1.51,3.49-2.75,4.75c-11.45,11.73-19.97,25.23-25.36,40.73
		c-1.38,3.96-5.04,5.69-8.59,4.39c-3.81-1.39-5.72-5.02-4.34-8.92c6.18-17.55,15.69-33.01,29.06-46.02
		c2.11-2.05,4.62-2.66,7.33-1.43C1830.61,488.73,1832.22,490.74,1832.67,494.04z"/>
	<path class="st20" d="M1854.45,679.98c-4.46,0.03-7.33-2.43-7.79-6.18c-0.45-3.68,1.88-6.55,5.77-7.51
		c7.06-1.75,14.09-3.6,21.12-5.49c2.92-0.78,5.65-0.8,7.96,1.41c1.98,1.89,2.44,4.41,1.57,6.82c-0.57,1.56-1.82,3.4-3.25,4.03
		C1871.56,676.67,1862.84,678.81,1854.45,679.98z"/>
</g>
<g>
	<circle class="st22" cx="2771.11" cy="949.51" r="87.07"/>
	<circle class="st20" cx="2771.11" cy="949.51" r="73.81"/>
	<line class="st22" x1="2701.77" y1="896.76" x2="2850.01" y2="984.53"/>
	<line class="st20" x1="2696.29" y1="907.46" x2="2843.81" y2="994.63"/>
</g>
<g>
	<path class="st23" d="M1697.41,1211.17v-113.17c0-3.33,2.7-6.03,6.04-6.03h35.91c3.33,0,6.04,2.7,6.04,6.03v4.65
		c0,0.92,0.74,1.66,1.66,1.66h74.08c3.33,0,6.03,2.7,6.03,6.04v12.68c0,1.06-0.86,1.92-1.92,1.92h-85.98
		c-7.1,0-13.42,4.51-15.74,11.22l-25.88,75.04C1697.61,1211.34,1697.41,1211.31,1697.41,1211.17z"/>
	<path class="st23" d="M1699.56,1211.91h125.68c0.67,0,1.26-0.44,1.46-1.07l22.78-73.4c1.92-6.2-2.71-12.49-9.2-12.49h-101.03
		c-7.09,0-13.39,4.5-15.7,11.2l-25.43,73.75C1697.77,1210.88,1698.51,1211.91,1699.56,1211.91z"/>
</g>
<g>
	<g>
		<path class="st24" d="M3118.3,850.69c-17.74,17.73-44.92,29.08-75.4,29.08c0,0,0,71.44,0,71.46c0,17.88,12.58,36.21,24.61,48.68
			c6.57,6.81,13.99,12.85,21.88,18.2c8.86,6,18.82,12.66,28.81,16.7"/>
		<path class="st24" d="M3118.3,850.69c17.74,17.73,44.92,29.08,75.4,29.08c0,0,0,71.44,0,71.46c0,17.88-12.58,36.21-24.61,48.68
			c-6.57,6.81-13.99,12.85-21.88,18.2c-8.86,6-18.82,12.66-28.81,16.7"/>
	</g>
	<g>
		<path class="st20" d="M3118.3,867.31c-14.54,14.53-36.81,23.83-61.78,23.83c0,0,0,58.54,0,58.55c0,14.65,10.31,29.67,20.17,39.89
			c5.38,5.58,11.46,10.53,17.93,14.91c7.26,4.92,15.42,10.37,23.61,13.68"/>
		<path class="st20" d="M3118.3,867.31c14.54,14.53,36.81,23.82,61.78,23.82c0,0,0,58.54,0,58.55c0,14.65-10.31,29.67-20.17,39.89
			c-5.38,5.58-11.46,10.53-17.93,14.91c-7.26,4.92-15.42,10.37-23.61,13.68"/>
	</g>
</g>
<path class="st20" d="M2942.58,702c-21.48,0-42.97,0.05-64.45-0.02c-22.29-0.07-40.09-18.28-39.7-40.46
	c0.34-19.43,15.32-36.37,34.6-38.32c4.3-0.43,5.11-1.99,5.61-5.63c3.27-23.77,23.69-41.56,47.7-41.55
	c15.02,0,27.56,5.78,37.29,17.26c1.72,2.03,3.13,2.46,5.67,1.75c16.53-4.6,34.07,6.17,37.44,23.03c0.65,3.24,1.47,4.74,5.32,5.08
	c19.31,1.7,34.75,18.86,35.06,38.38c0.32,19.83-14.16,37.07-33.39,39.93c-4.77,0.71-9.52,0.53-14.29,0.54
	C2980.49,702.02,2961.53,702,2942.58,702z M2942.62,692.7c20.62,0,41.24,0.01,61.85-0.02c2.03,0,4.09-0.02,6.07-0.39
	c16.78-3.11,27.86-18.22,25.72-34.95c-2.11-16.47-17.01-28.35-34.06-26.77c-3.73,0.35-4.56-0.72-4.04-4
	c0.15-0.93,0.07-1.9,0.04-2.84c-0.56-15.27-17.32-25.85-31.09-19.29c-3.81,1.82-5.25,1.02-7.44-2.19
	c-9.95-14.59-27.99-20.54-44.85-15.17c-16.38,5.21-27.7,20.93-27.5,38.2c0.06,5.31,0.06,5.31-5.27,5.1
	c-17.76-0.69-32.63,12.8-32.94,29.89c-0.34,18.41,13.29,32.39,31.67,32.41C2901.39,692.72,2922,692.7,2942.62,692.7z"/>
<polyline class="st15" points="2869.1,247.27 2594.1,89.27 2504.27,90.02 1221.1,90.27 "/>
<g>
	<defs>
		<path id="SVGID_1_" d="M833.07,939.91l-132.72-0.18c-13.44-0.02-24.43-11.03-24.41-24.47l0.16-119.62
			c0.02-13.44,11.03-24.43,24.47-24.41l132.72,0.18c13.44,0.02,24.43,11.03,24.41,24.47l-0.16,119.62
			C857.53,928.94,846.52,939.92,833.07,939.91z"/>
	</defs>
	<clipPath id="SVGID_2_">
		<use xlink:href="#SVGID_1_"  style="overflow:visible;"/>
	</clipPath>
	<g class="st25">
		
			<linearGradient id="SVGID_3_" gradientUnits="userSpaceOnUse" x1="550.7886" y1="870.274" x2="784.7039" y2="870.274" gradientTransform="matrix(1 5.895989e-03 -5.895989e-03 1 106.5226 -0.9785)">
			<stop  offset="0.0102" style="stop-color:#1492B6"/>
			<stop  offset="1" style="stop-color:#1599BD"/>
		</linearGradient>
		<polygon class="st26" points="652.84,758.72 885.4,989.37 886.45,758.44 		"/>
		<polygon class="st27" points="885.4,989.37 652.84,758.72 663.54,993.28 		"/>
	</g>
</g>
<path class="st28" d="M790.94,837.66c0,10.25-6.41,19.01-15.45,22.48v44.69c0,4.74-3.87,8.62-8.61,8.62h-0.01
	c-4.74,0-8.61-3.88-8.61-8.62v-44.69c-9.04-3.46-15.45-12.23-15.45-22.48c0-13.29,10.78-24.07,24.07-24.07
	C780.17,813.59,790.94,824.37,790.94,837.66z"/>
<path class="st29" d="M2873.35,1301v-113.17c0-3.33,2.7-6.03,6.03-6.03h35.91c3.33,0,6.03,2.7,6.03,6.03v4.65
	c0,0.92,0.74,1.66,1.66,1.66h74.08c3.33,0,6.03,2.7,6.03,6.04v12.68c0,1.06-0.86,1.92-1.92,1.92h-85.98
	c-7.1,0-13.42,4.51-15.74,11.22l-25.88,75.04C2873.55,1301.18,2873.35,1301.14,2873.35,1301z"/>
<path class="st29" d="M2875.49,1301.75h125.68c0.67,0,1.26-0.44,1.46-1.07l22.78-73.4c1.92-6.2-2.71-12.49-9.2-12.49h-101.03
	c-7.09,0-13.39,4.5-15.7,11.2l-25.43,73.75C2873.71,1300.72,2874.44,1301.75,2875.49,1301.75z"/>
<circle class="st20" cx="2487.26" cy="567.81" r="28"/>
<circle class="st32" cx="1220.85" cy="301.77" r="11.5"/>
<circle class="st33" cx="403.6" cy="377.77" r="11.5"/>
<circle class="st33" cx="852.6" cy="1427.77" r="11.5"/>
<circle class="st32" cx="997.6" cy="1114.77" r="11.5"/>
<circle class="st32" cx="236.6" cy="1307.77" r="11.5"/>
<circle class="st32" cx="292.6" cy="756.77" r="11.5"/>
<circle class="st32" cx="409.6" cy="833.77" r="11.5"/>
<circle class="st32" cx="1009.6" cy="1257.77" r="11.5"/>
<circle class="st33" cx="765.6" cy="1433.77" r="11.5"/>
<circle class="st33" cx="328.6" cy="448.77" r="11.5"/>
<circle class="st32" cx="290.6" cy="1365.77" r="11.5"/>
<circle class="st32" cx="1288.6" cy="366.77" r="11.5"/>
<circle class="st32" cx="283.6" cy="834.77" r="11.5"/>
<circle class="st32" cx="1085.6" cy="1202.77" r="11.5"/>
<circle class="st33" cx="371.6" cy="1284.77" r="11.5"/>
<circle class="st33" cx="1207.6" cy="448.77" r="11.5"/>
<circle class="st33" cx="403.6" cy="521.77" r="11.5"/>
<circle class="st33" cx="766.6" cy="1323.77" r="11.5"/>
<circle class="st29" cx="2198.6" cy="739.77" r="11.5"/>
<circle class="st29" cx="2773.6" cy="741.77" r="11.5"/>
<circle class="st29" cx="3119.6" cy="742.77" r="11.5"/>
<circle class="st29" cx="2942.6" cy="1041.77" r="11.5"/>
<circle class="st29" cx="1911.6" cy="1241.77" r="11.5"/>
<circle class="st29" cx="1623.6" cy="739.77" r="11.5"/>
<circle class="st29" cx="2942.6" cy="1443.77" r="11.5"/>
<circle class="st29" cx="2485.6" cy="1236.77" r="11.5"/>
<circle class="st32" cx="2873.6" cy="252.77" r="11.5"/>
<circle class="st32" cx="1612.07" cy="1604.27" r="11.5"/>
<circle class="st32" cx="2485.6" cy="1446.77" r="11.5"/>
<linearGradient id="SVGID_4_" gradientUnits="userSpaceOnUse" x1="704.3785" y1="720.2951" x2="835.9767" y2="720.2951" gradientTransform="matrix(1 -5.055989e-04 5.055989e-04 1 0.2676 -0.7849)">
	<stop  offset="0.0102" style="stop-color:#1492B6"/>
	<stop  offset="1" style="stop-color:#1599BD"/>
</linearGradient>
<path class="st34" d="M836.62,732.87l0.02,38.66l-17.43,0.01l-0.02-29.63c-0.01-15.01-5.38-28.67-14.06-38.56
	c-8.67-9.91-20.64-16.03-33.77-16.03c-26.31,0.01-47.79,24.6-47.77,54.63l0.01,29.63l-18.57,0.01l-0.02-38.66
	c-0.02-36.44,29.57-66.24,65.75-66.26c18.1-0.01,34.56,7.42,46.49,19.43C829.21,698.1,836.61,714.66,836.62,732.87z"/>
<circle class="st32" cx="1220.85" cy="91.27" r="11.5"/>
<g>
	<rect x="2080.45" y="907.29" class="st162" width="236.2" height="88.03"/>
	<g>
		<line class="st163" x1="2035.51" y1="916.99" x2="2035.51" y2="976.51"/>
		<polyline class="st163" points="2020.43,960.92 2035.51,976.51 2051.11,961.78 		"/>
	</g>
	<rect x="2110.02" y="931.38" class="st163" width="39.31" height="39.31"/>
	<rect x="2267.43" y="927.54" class="st163" width="9.13" height="9.13"/>
	<rect x="2287.61" y="927.54" class="st163" width="9.13" height="9.13"/>
	<line class="st163" x1="2177.97" y1="946.12" x2="2247.14" y2="946.12"/>
	<line class="st163" x1="2177.97" y1="966.87" x2="2295.17" y2="966.87"/>
</g>
<rect x="2081.8" y="1032.85" class="st162" width="236.2" height="88.03"/>
<g>
	<line class="st163" x1="2036.13" y1="1231.36" x2="2035.64" y2="1171.85"/>
	<polyline class="st163" points="2050.86,1187.31 2035.64,1171.85 2020.17,1186.7 	"/>
</g>
<rect x="2110.6" y="1057.21" class="st163" width="39.31" height="39.31"/>
<line class="st163" x1="2178.55" y1="1071.95" x2="2247.72" y2="1071.95"/>
<line class="st163" x1="2178.55" y1="1092.7" x2="2295.74" y2="1092.7"/>
<g>
	<rect x="2080.45" y="1157.59" class="st162" width="236.2" height="88.03"/>
	<rect x="2110.68" y="1181.95" class="st163" width="39.31" height="39.31"/>
	<line class="st163" x1="2178.63" y1="1196.69" x2="2247.8" y2="1196.69"/>
	<line class="st163" x1="2178.63" y1="1217.44" x2="2295.83" y2="1217.44"/>
</g>
</svg>
