<?xml version="1.0" encoding="utf-8"?>
<!-- Generator: Adobe Illustrator 24.0.0, SVG Export Plug-In . SVG Version: 6.00 Build 0)  -->
<svg version="1.1" id="Layer_1" xmlns="http://www.w3.org/2000/svg" xmlns:xlink="http://www.w3.org/1999/xlink" x="0px" y="0px"
	 viewBox="0 0 3353 1685" style="enable-background:new 0 0 3353 1685;" xml:space="preserve">
<style type="text/css">
	.st0{fill:#FFFFFF;}
	.st1{fill:#1BC1E5;}
	.st2{fill:#094063;}
	.st3{fill:none;stroke:#00C4E8;stroke-width:4;stroke-miterlimit:10;}
	.st4{fill:none;stroke:#00CCFF;stroke-width:4;stroke-miterlimit:10;}
	.st5{fill:none;stroke:#19B7D9;stroke-width:4;stroke-linecap:round;stroke-linejoin:round;stroke-miterlimit:10;}
	.st6{fill:none;stroke:#064061;stroke-width:4;stroke-linecap:round;stroke-linejoin:round;stroke-miterlimit:10;}
	.st7{fill:none;stroke:#003366;stroke-width:4;stroke-linecap:round;stroke-linejoin:round;stroke-miterlimit:10;}
	.st8{fill:#FFFFFF;stroke:#00C4E8;stroke-width:4;stroke-miterlimit:10;}
	.st9{fill:#FFFFFF;stroke:#094063;stroke-width:4;stroke-miterlimit:10;}
	.st10{fill:none;stroke:#1BC1E5;stroke-width:4;stroke-miterlimit:10;}
	.st11{fill:none;stroke:#1BC1E5;stroke-width:4;stroke-linecap:round;stroke-miterlimit:10;}
	.st12{fill:none;stroke:#083F61;stroke-width:4;stroke-linecap:round;stroke-linejoin:round;stroke-miterlimit:10;}
	.st13{fill:none;stroke:#083F61;stroke-width:3.8357;stroke-linecap:round;stroke-linejoin:round;stroke-miterlimit:10;}
	.st14{fill:none;stroke:#1BC1E5;stroke-width:4;stroke-linecap:round;stroke-linejoin:round;stroke-miterlimit:10;}
	.st15{fill:none;stroke:#1BC1E5;stroke-width:3.5;stroke-linecap:round;stroke-linejoin:round;stroke-miterlimit:10;}
	.st16{fill:none;stroke:#083F61;stroke-width:3.5;stroke-linecap:round;stroke-linejoin:round;stroke-miterlimit:10;}
	.st17{fill:none;stroke:#2D4583;stroke-width:3;stroke-linecap:round;stroke-linejoin:round;stroke-miterlimit:10;}
	.st18{fill:#FFFFFF;stroke:#083F61;stroke-width:3;stroke-linecap:round;stroke-linejoin:round;stroke-miterlimit:10;}
	.st19{clip-path:url(#SVGID_2_);}
	.st20{fill:url(#SVGID_3_);}
	.st21{fill:#93D6E2;}
	.st22{fill:#FDFDFD;stroke:#FFFFFF;stroke-width:10;stroke-miterlimit:10;}
	.st23{fill:#FFFFFF;stroke:#1BC1E5;stroke-width:3.5;stroke-linecap:round;stroke-linejoin:round;stroke-miterlimit:10;}
	.st24{fill:none;stroke:#083F61;stroke-width:3;stroke-linecap:round;stroke-linejoin:round;stroke-miterlimit:10;}
	.st25{fill:none;stroke:#083F61;stroke-width:2.999;stroke-miterlimit:10;}
	.st26{fill:#FFFFFF;stroke:#083F61;stroke-width:3.5;stroke-linecap:round;stroke-linejoin:round;stroke-miterlimit:10;}
	.st27{fill:url(#SVGID_4_);}
	.st28{fill:none;stroke:#094063;stroke-width:4;stroke-miterlimit:10;}
	.st29{fill:#FFFFFF;stroke:#00CCFF;stroke-width:4;stroke-miterlimit:10;}
	.st30{fill:#064163;stroke:#094063;stroke-width:2;stroke-miterlimit:10;}
	.st31{fill:none;stroke:#003366;stroke-width:4;stroke-miterlimit:10;}
	.st32{fill:#FFFFFF;stroke:#003366;stroke-width:4;stroke-miterlimit:10;}
	.st33{clip-path:url(#SVGID_6_);}
	.st34{fill:url(#SVGID_7_);}
	.st35{clip-path:url(#SVGID_9_);}
	.st36{fill:url(#SVGID_10_);}
	.st37{clip-path:url(#SVGID_12_);}
	.st38{fill:url(#SVGID_13_);}
	.st39{clip-path:url(#SVGID_15_);}
	.st40{fill:url(#SVGID_16_);}
	.st41{clip-path:url(#SVGID_18_);}
	.st42{fill:url(#SVGID_19_);}
	.st43{fill:none;stroke:#083F61;stroke-width:13;stroke-linecap:round;stroke-linejoin:round;stroke-miterlimit:10;}
	.st44{clip-path:url(#SVGID_21_);fill:#094063;}
	.st45{clip-path:url(#SVGID_21_);fill:#1BC1E5;}
	.st46{clip-path:url(#SVGID_23_);}
	.st47{fill:#7DD7E3;}
	.st48{fill:url(#SVGID_24_);}
	.st49{clip-path:url(#SVGID_26_);}
	.st50{clip-path:url(#SVGID_28_);}
	.st51{fill:url(#SVGID_29_);}
	.st52{fill:none;stroke:#063F61;stroke-width:2.6128;stroke-miterlimit:10;}
	.st53{fill:none;}
	.st54{fill:none;stroke:#063F61;stroke-width:4;stroke-miterlimit:10;}
	.st55{fill:none;stroke:#1BC1E5;stroke-width:3;stroke-linecap:round;stroke-linejoin:round;stroke-miterlimit:10;}
	.st56{fill:none;stroke:#1BB8DA;stroke-width:3;stroke-linecap:round;stroke-linejoin:round;stroke-miterlimit:10;}
	.st57{fill:none;stroke:#93D6E2;stroke-width:3;stroke-linecap:round;stroke-linejoin:round;stroke-miterlimit:10;}
	.st58{clip-path:url(#SVGID_31_);}
	.st59{clip-path:url(#SVGID_33_);fill:#094063;}
	.st60{fill:none;stroke:#F4F4F4;stroke-width:13;stroke-linecap:round;stroke-linejoin:round;stroke-miterlimit:10;}
	.st61{fill:#064061;}
	.st62{fill:#FFFFFF;stroke:#F4F4F4;stroke-width:6;stroke-linecap:round;stroke-linejoin:round;stroke-miterlimit:10;}
	.st63{fill:none;stroke:#1BC1E5;stroke-width:18;stroke-linecap:round;stroke-linejoin:round;stroke-miterlimit:10;}
	.st64{fill:none;stroke:#083F61;stroke-width:2.8883;stroke-linecap:round;stroke-linejoin:round;stroke-miterlimit:10;}
	.st65{fill:none;stroke:#1BC1E5;stroke-width:3;stroke-linecap:round;stroke-miterlimit:10;}
	.st66{fill:#FFFFFF;stroke:#1BC1E5;stroke-width:3;stroke-linecap:round;stroke-linejoin:round;stroke-miterlimit:10;}
	.st67{clip-path:url(#SVGID_35_);}
	.st68{fill:#004166;}
	.st69{fill:#00C4E8;}
	.st70{clip-path:url(#SVGID_35_);fill:none;stroke:#FFFFFF;stroke-width:4;stroke-miterlimit:10;}
	.st71{clip-path:url(#SVGID_37_);}
	.st72{clip-path:url(#SVGID_37_);fill:url(#SVGID_38_);}
	.st73{fill:#FFFFFF;stroke:#1BC1E5;stroke-width:3.5;stroke-linecap:round;stroke-miterlimit:10;}
	.st74{fill:#FFFFFF;stroke:#1BC1E5;stroke-width:4;stroke-linecap:round;stroke-miterlimit:10;}
	.st75{fill:none;stroke:#004166;stroke-width:2.8883;stroke-miterlimit:10;}
	.st76{fill:none;stroke:#00C4E8;stroke-width:2.8883;stroke-miterlimit:10;}
	.st77{fill:none;stroke:#074063;stroke-width:2.8883;stroke-linecap:round;stroke-miterlimit:10;}
	.st78{fill:none;stroke:#00B9DC;stroke-width:2.8883;stroke-linecap:round;stroke-linejoin:round;stroke-miterlimit:10;}
	.st79{fill:none;stroke:#004064;stroke-width:2.8883;stroke-linecap:round;stroke-linejoin:round;stroke-miterlimit:10;}
	.st80{fill:#FCFCFC;stroke:#004166;stroke-width:2.8883;stroke-miterlimit:10;}
	.st81{fill:#FAFBFC;stroke:#00C4E8;stroke-width:2.8883;stroke-miterlimit:10;}
	.st82{fill:none;stroke:#083F61;stroke-width:3.3376;stroke-linecap:round;stroke-linejoin:round;stroke-miterlimit:10;}
	.st83{fill:none;stroke:#1BC1E5;stroke-width:3.3376;stroke-linecap:round;stroke-miterlimit:10;}
	.st84{fill:none;stroke:#083F61;stroke-width:2.7857;stroke-linecap:round;stroke-linejoin:round;stroke-miterlimit:10;}
	.st85{fill:none;stroke:#083F61;stroke-width:2.7481;stroke-linecap:round;stroke-linejoin:round;stroke-miterlimit:10;}
	.st86{fill:#FFFFFF;stroke:#1BC1E5;stroke-width:2.8883;stroke-linecap:round;stroke-linejoin:round;stroke-miterlimit:10;}
	.st87{fill:#FFFFFF;stroke:#004166;stroke-width:2.8883;stroke-miterlimit:10;}
	.st88{fill:none;stroke:#063F61;stroke-width:3;stroke-miterlimit:10;}
	.st89{fill:none;stroke:#1BC1E5;stroke-width:2.409;stroke-miterlimit:10;}
	.st90{fill:none;stroke:#1BC1E5;stroke-width:2.496;stroke-miterlimit:10;}
	.st91{fill:#FFFFFF;stroke:#1BC1E5;stroke-width:4;stroke-linecap:round;stroke-linejoin:round;stroke-miterlimit:10;}
	.st92{fill:#FFFFFF;stroke:#063F61;stroke-width:4;stroke-miterlimit:10;}
	.st93{fill:#FFFFFF;stroke:#083F61;stroke-width:4;stroke-linecap:round;stroke-linejoin:round;stroke-miterlimit:10;}
	.st94{fill:#3399FF;}
	.st95{fill:none;stroke:#094063;stroke-width:3;stroke-miterlimit:10;}
	.st96{clip-path:url(#SVGID_40_);}
	.st97{clip-path:url(#SVGID_40_);fill:none;stroke:#FFFFFF;stroke-width:4;stroke-miterlimit:10;}
	.st98{clip-path:url(#SVGID_42_);}
	.st99{clip-path:url(#SVGID_42_);fill:url(#SVGID_43_);}
	.st100{fill:#FFFFFF;stroke:#19B7D9;stroke-width:4;stroke-linecap:round;stroke-linejoin:round;stroke-miterlimit:10;}
	.st101{fill:none;stroke:#083F61;stroke-width:2.6605;stroke-linecap:round;stroke-linejoin:round;stroke-miterlimit:10;}
	.st102{opacity:0.26;}
	.st103{clip-path:url(#SVGID_45_);}
	.st104{clip-path:url(#SVGID_45_);fill:none;stroke:#FFFFFF;stroke-width:4;stroke-miterlimit:10;}
	.st105{clip-path:url(#SVGID_47_);}
	.st106{clip-path:url(#SVGID_47_);fill:url(#SVGID_48_);}
	.st107{fill:none;stroke:#004166;stroke-width:4;stroke-miterlimit:10;}
	.st108{fill:none;stroke:#074063;stroke-width:4;stroke-linecap:round;stroke-miterlimit:10;}
	.st109{fill:#FCFCFC;stroke:#004166;stroke-width:4;stroke-miterlimit:10;}
	.st110{fill:#FFFFFF;stroke:#004166;stroke-width:4;stroke-miterlimit:10;}
	.st111{fill:none;stroke:#004166;stroke-width:3.5;stroke-linecap:round;stroke-miterlimit:10;}
	.st112{fill:none;stroke:#004166;stroke-width:3.5;stroke-miterlimit:10;}
	.st113{fill:none;stroke:#004166;stroke-width:4;stroke-linecap:round;stroke-miterlimit:10;}
	.st114{fill:#FFFFFF;stroke:#004166;stroke-width:3.5;stroke-miterlimit:10;}
</style>
<rect x="1280.02" y="287.48" class="st3" width="795.72" height="1108.46"/>
<line class="st4" x1="1280.02" y1="539.67" x2="2075.74" y2="466.61"/>
<line class="st3" x1="1278.81" y1="692.89" x2="2075.74" y2="765.45"/>
<line class="st3" x1="1280.02" y1="991.21" x2="2075.74" y2="920.01"/>
<line class="st3" x1="1280.02" y1="1144.1" x2="2075.74" y2="1217.77"/>
<rect x="1279.81" y="362.27" class="st5" width="795.72" height="955.43"/>
<line class="st6" x1="766.52" y1="390.89" x2="2585.95" y2="390.89"/>
<line class="st7" x1="415.19" y1="1068.89" x2="2940.57" y2="1068.89"/>
<line class="st6" x1="415.06" y1="615.13" x2="2938.44" y2="615.13"/>
<line class="st6" x1="768.02" y1="1293.78" x2="2587.35" y2="1292.78"/>
<line class="st6" x1="768.02" y1="843.06" x2="2585.95" y2="843.06"/>
<rect x="2127.62" y="351.56" class="st8" width="28.3" height="79.99"/>
<rect x="2127.62" y="575.83" class="st9" width="28.3" height="79.99"/>
<rect x="2127.62" y="803.86" class="st8" width="28.3" height="79.99"/>
<rect x="2127.62" y="1029.69" class="st9" width="28.3" height="79.99"/>
<rect x="2127.62" y="1254.58" class="st8" width="28.3" height="79.99"/>
<rect x="1196.24" y="350.76" class="st9" width="28.3" height="79.99"/>
<rect x="1196.24" y="575.03" class="st8" width="28.3" height="79.99"/>
<rect x="1196.24" y="803.07" class="st9" width="28.3" height="79.99"/>
<rect x="1196.24" y="1028.89" class="st8" width="28.3" height="79.99"/>
<rect x="1196.24" y="1253.78" class="st9" width="28.3" height="79.99"/>
<rect x="2514.66" y="1025.77" class="st0" width="49.07" height="88.37"/>
<rect x="2514.71" y="571.99" class="st0" width="49.86" height="88.37"/>
<rect x="967.84" y="1252.92" class="st0" width="49.86" height="88.37"/>
<rect x="966.59" y="800.86" class="st0" width="49.86" height="88.37"/>
<rect x="966.77" y="346.57" class="st0" width="49.04" height="88.37"/>
<polygon class="st5" points="626.99,239.84 453.89,239.84 367.34,389.76 453.89,539.67 626.99,539.67 713.55,389.76 "/>
<polygon class="st28" points="62.51,528.68 62.51,701.79 212.43,788.34 362.34,701.79 362.34,528.68 212.43,442.13 "/>
<polygon class="st5" points="626.99,692.15 453.89,692.15 367.34,842.06 453.89,991.98 626.99,991.98 713.55,842.06 "/>
<polygon class="st28" points="62.51,981.02 62.51,1154.12 212.43,1240.68 362.34,1154.12 362.34,981.02 212.43,894.47 "/>
<polygon class="st5" points="626.99,1142.87 453.89,1142.87 367.34,1292.78 453.89,1442.69 626.99,1442.69 713.55,1292.78 "/>
<polygon class="st3" points="2900.43,240.08 2727.33,240.08 2640.78,389.99 2727.33,539.9 2900.43,539.9 2986.98,389.99 "/>
<polygon class="st3" points="2900.43,691.38 2727.33,691.38 2640.78,841.3 2727.33,991.21 2900.43,991.21 2986.98,841.3 "/>
<polygon class="st3" points="2900.43,1144.1 2727.33,1144.1 2640.78,1294.01 2727.33,1443.92 2900.43,1443.92 2986.98,1294.01 "/>
<polygon class="st28" points="3291.88,529.58 3291.88,702.69 3141.97,789.24 2992.06,702.69 2992.06,529.58 3141.97,443.03 "/>
<polygon class="st28" points="3292.16,981.34 3292.16,1154.44 3142.25,1240.99 2992.33,1154.44 2992.33,981.34 3142.25,894.79 "/>
<path class="st6" d="M633.22,1475.84c0,0,996.8,258.42,2085.1,0"/>
<path class="st6" d="M633.33,209.16c0,0,996.8-258.42,2085.1,0"/>
<g>
	<circle class="st29" cx="212.86" cy="560.3" r="43.32"/>
	<polygon class="st29" points="292.2,685.5 132.73,685.5 156.56,612.95 183.94,612.95 198.17,636.44 212.46,660.03 226.75,636.44 
		240.98,612.95 267.08,612.95 	"/>
</g>
<rect x="1224.53" y="539.8" class="st2" width="451.71" height="151.59"/>
<rect x="1224.53" y="765.45" class="st2" width="453.15" height="151.59"/>
<rect x="1224.53" y="992.44" class="st2" width="452.54" height="151.59"/>
<rect x="1224.53" y="1217.77" class="st2" width="452.54" height="151.59"/>
<g>
	<path class="st30" d="M1002.31,410.28l-21.09-0.13c-3.22-0.02-5.81-2.65-5.79-5.86v0c0.02-3.22,2.65-5.81,5.86-5.79l21.09,0.13
		c3.22,0.02,5.81,2.65,5.79,5.86l0,0C1008.15,407.71,1005.53,410.3,1002.31,410.28z"/>
	<path class="st30" d="M1002.89,381.01l-21.09-0.13c-3.22-0.02-5.81-2.65-5.79-5.86v0c0.02-3.22,2.65-5.81,5.86-5.79l21.09,0.13
		c3.22,0.02,5.81,2.65,5.79,5.86l0,0C1008.73,378.44,1006.11,381.03,1002.89,381.01z"/>
	<path class="st30" d="M966.43,361.37l0.4,58.56l-15.75-0.1c-13.49-0.08-24.8-9.28-28.11-21.72l-32.85-0.21
		c-4.06-0.02-7.32-3.33-7.29-7.38c0.01-1.94,0.77-3.71,2.01-5.01c1.35-1.42,3.26-2.29,5.37-2.28l32.65,0.21
		c1.24-4.98,3.75-9.45,7.18-13.05c5.38-5.66,12.99-9.16,21.41-9.12l14.81,0.1L966.43,361.37z"/>
	<path class="st30" d="M1100.04,389.84c-0.02,1.94-0.78,3.71-2.02,5.01c-1.35,1.42-3.25,2.29-5.36,2.28l-31.33-0.19
		c-1.19,5.18-3.76,9.83-7.29,13.54c-5.38,5.66-12.99,9.16-21.41,9.11l-16.63-0.11l-0.13-58.55l17.12,0.1
		c13.31,0.09,24.49,9.04,27.97,21.23l31.78,0.2C1096.79,382.48,1100.06,385.78,1100.04,389.84z"/>
</g>
<g>
	<path class="st30" d="M1002.26,862.71l-21.09-0.13c-3.22-0.02-5.81-2.65-5.79-5.86l0,0c0.02-3.22,2.65-5.81,5.86-5.79l21.09,0.13
		c3.22,0.02,5.81,2.65,5.79,5.86l0,0C1008.1,860.14,1005.48,862.73,1002.26,862.71z"/>
	<path class="st30" d="M1002.84,833.44l-21.09-0.13c-3.22-0.02-5.81-2.65-5.79-5.86v0c0.02-3.22,2.65-5.81,5.86-5.79l21.09,0.13
		c3.22,0.02,5.81,2.65,5.79,5.86l0,0C1008.68,830.87,1006.05,833.46,1002.84,833.44z"/>
	<path class="st30" d="M966.38,813.8l0.4,58.56l-15.75-0.1c-13.49-0.08-24.8-9.28-28.11-21.72l-32.85-0.21
		c-4.06-0.02-7.32-3.33-7.29-7.38c0.01-1.94,0.77-3.71,2.01-5.01c1.35-1.42,3.26-2.29,5.37-2.28l32.65,0.21
		c1.24-4.98,3.75-9.45,7.18-13.05c5.38-5.66,12.99-9.16,21.41-9.12l14.81,0.1L966.38,813.8z"/>
	<path class="st30" d="M1099.99,842.27c-0.02,1.94-0.78,3.71-2.02,5.01c-1.35,1.42-3.25,2.29-5.36,2.28l-31.33-0.19
		c-1.19,5.18-3.76,9.83-7.29,13.54c-5.38,5.66-12.99,9.16-21.41,9.11l-16.63-0.11l-0.13-58.55l17.12,0.1
		c13.31,0.09,24.49,9.04,27.97,21.23l31.78,0.2C1096.74,834.91,1100.01,838.21,1099.99,842.27z"/>
</g>
<g>
	<path class="st30" d="M1003.21,1313.42l-21.09-0.13c-3.22-0.02-5.81-2.65-5.79-5.86l0,0c0.02-3.22,2.65-5.81,5.86-5.79l21.09,0.13
		c3.22,0.02,5.81,2.65,5.79,5.86v0C1009.05,1310.85,1006.43,1313.44,1003.21,1313.42z"/>
	<path class="st30" d="M1003.79,1284.16l-21.09-0.13c-3.22-0.02-5.81-2.65-5.79-5.86l0,0c0.02-3.22,2.65-5.81,5.86-5.79l21.09,0.13
		c3.22,0.02,5.81,2.65,5.79,5.86l0,0C1009.63,1281.58,1007,1284.18,1003.79,1284.16z"/>
	<path class="st30" d="M967.32,1264.52l0.4,58.56l-15.75-0.1c-13.49-0.08-24.8-9.28-28.11-21.72l-32.85-0.21
		c-4.06-0.02-7.32-3.33-7.29-7.38c0.01-1.94,0.77-3.71,2.01-5.01c1.35-1.42,3.26-2.29,5.37-2.28l32.65,0.21
		c1.24-4.98,3.75-9.45,7.18-13.05c5.38-5.66,12.99-9.16,21.41-9.12l14.81,0.1L967.32,1264.52z"/>
	<path class="st30" d="M1100.94,1292.98c-0.02,1.94-0.78,3.71-2.02,5.01c-1.35,1.42-3.25,2.29-5.36,2.28l-31.33-0.19
		c-1.19,5.18-3.76,9.83-7.29,13.54c-5.38,5.66-12.99,9.16-21.41,9.11l-16.63-0.11l-0.13-58.55l17.12,0.1
		c13.31,0.09,24.49,9.04,27.97,21.23l31.78,0.2C1097.69,1285.62,1100.96,1288.93,1100.94,1292.98z"/>
</g>
<g>
	<path class="st30" d="M2550.15,634.85l-21.09-0.13c-3.22-0.02-5.81-2.65-5.79-5.86v0c0.02-3.22,2.65-5.81,5.86-5.79l21.09,0.13
		c3.22,0.02,5.81,2.65,5.79,5.86l0,0C2555.99,632.28,2553.37,634.87,2550.15,634.85z"/>
	<path class="st30" d="M2550.73,605.58l-21.09-0.13c-3.22-0.02-5.81-2.65-5.79-5.86l0,0c0.02-3.22,2.65-5.81,5.86-5.79l21.09,0.13
		c3.22,0.02,5.81,2.65,5.79,5.86l0,0C2556.57,603.01,2553.94,605.6,2550.73,605.58z"/>
	<path class="st30" d="M2514.27,585.94l0.4,58.56l-15.75-0.1c-13.49-0.08-24.8-9.28-28.11-21.72l-32.85-0.21
		c-4.06-0.02-7.32-3.33-7.29-7.38c0.01-1.94,0.77-3.71,2.01-5.01c1.35-1.42,3.26-2.29,5.37-2.28l32.65,0.21
		c1.24-4.98,3.75-9.45,7.18-13.05c5.38-5.66,12.99-9.16,21.41-9.12l14.81,0.1L2514.27,585.94z"/>
	<path class="st30" d="M2647.88,614.41c-0.02,1.94-0.78,3.71-2.02,5.01c-1.35,1.42-3.25,2.29-5.36,2.28l-31.33-0.19
		c-1.19,5.18-3.76,9.83-7.29,13.54c-5.38,5.66-12.99,9.16-21.41,9.11l-16.63-0.11l-0.13-58.55l17.12,0.1
		c13.31,0.09,24.49,9.04,27.97,21.23l31.78,0.2C2644.63,607.05,2647.9,610.35,2647.88,614.41z"/>
</g>
<g>
	<path class="st30" d="M2550.13,1089.26l-21.09-0.09c-3.22-0.01-5.82-2.63-5.8-5.85l0,0c0.01-3.22,2.64-5.82,5.85-5.8l21.09,0.09
		c3.22,0.01,5.82,2.63,5.8,5.85l0,0C2555.97,1086.68,2553.35,1089.28,2550.13,1089.26z"/>
	<path class="st30" d="M2550.66,1059.99l-21.09-0.09c-3.22-0.01-5.82-2.63-5.8-5.85l0,0c0.01-3.22,2.64-5.82,5.85-5.8l21.09,0.09
		c3.22,0.01,5.82,2.63,5.8,5.85l0,0C2556.5,1057.41,2553.88,1060.01,2550.66,1059.99z"/>
	<path class="st30" d="M2514.16,1040.42l0.5,58.56l-15.75-0.07c-13.49-0.05-24.81-9.24-28.15-21.67l-32.85-0.15
		c-4.06-0.02-7.33-3.31-7.31-7.37c0-1.94,0.76-3.71,2-5.02c1.35-1.43,3.26-2.3,5.37-2.29l32.65,0.15c1.23-4.98,3.74-9.45,7.15-13.06
		c5.37-5.67,12.97-9.19,21.39-9.15l14.81,0.07L2514.16,1040.42z"/>
	<path class="st30" d="M2647.83,1068.65c-0.01,1.94-0.78,3.71-2.01,5.02c-1.34,1.42-3.24,2.3-5.36,2.29l-31.33-0.14
		c-1.18,5.18-3.74,9.83-7.26,13.55c-5.37,5.67-12.98,9.18-21.4,9.15l-16.63-0.08l-0.23-58.55l17.12,0.07
		c13.31,0.06,24.51,9,28.01,21.18l31.78,0.14C2644.57,1061.3,2647.84,1064.59,2647.83,1068.65z"/>
</g>
<g>
	<circle class="st29" cx="212.82" cy="1012.07" r="43.34"/>
	<polygon class="st29" points="292.2,1137.33 132.65,1137.33 156.49,1064.74 183.89,1064.74 198.12,1088.24 212.43,1111.85 
		226.72,1088.24 240.96,1064.74 267.07,1064.74 	"/>
</g>
<g>
	<circle class="st9" cx="2814.54" cy="341.4" r="43.32"/>
	<polygon class="st9" points="2893.88,466.61 2734.41,466.61 2758.24,394.05 2785.62,394.05 2799.85,417.54 2814.14,441.13 
		2828.43,417.54 2842.66,394.05 2868.76,394.05 	"/>
</g>
<g>
	<circle class="st9" cx="2814.54" cy="1245.55" r="43.32"/>
	<polygon class="st9" points="2893.88,1370.75 2734.41,1370.75 2758.24,1298.2 2785.62,1298.2 2799.85,1321.69 2814.14,1345.28 
		2828.43,1321.69 2842.66,1298.2 2868.76,1298.2 	"/>
</g>
<g>
	<line class="st31" x1="499.05" y1="300.34" x2="499.05" y2="485.44"/>
	<line class="st31" x1="525.5" y1="300.34" x2="525.5" y2="485.44"/>
	<line class="st31" x1="551.94" y1="300.34" x2="551.94" y2="485.44"/>
	<line class="st31" x1="578.38" y1="300.34" x2="578.38" y2="485.44"/>
	<line class="st31" x1="447.46" y1="351.93" x2="630.63" y2="351.93"/>
	<line class="st31" x1="447.46" y1="379.02" x2="630.63" y2="379.02"/>
	<line class="st31" x1="447.46" y1="406.11" x2="630.63" y2="406.11"/>
	<line class="st31" x1="447.46" y1="432.28" x2="631.59" y2="432.28"/>
	<rect x="475.85" y="328.46" class="st32" width="129.64" height="129.64"/>
	<rect x="501" y="353.61" class="st32" width="79.33" height="79.33"/>
</g>
<rect x="1224.53" y="312.96" class="st2" width="453.35" height="151.59"/>
<rect x="1676.27" y="312.96" class="st1" width="453.35" height="151.59"/>
<rect x="1676.24" y="539.8" class="st1" width="452.54" height="151.59"/>
<rect x="1676.35" y="765.45" class="st1" width="453.15" height="151.59"/>
<rect x="1676.66" y="992.44" class="st1" width="452.54" height="151.59"/>
<rect x="1676.66" y="1217.77" class="st1" width="452.54" height="151.59"/>
<g>
	<g>
		<defs>
			<rect id="SVGID_5_" x="1423.03" y="362.49" width="512.29" height="63.12"/>
		</defs>
		<clipPath id="SVGID_2_">
			<use xlink:href="#SVGID_5_"  style="overflow:visible;"/>
		</clipPath>
		<g class="st19">
			
				<linearGradient id="SVGID_3_" gradientUnits="userSpaceOnUse" x1="670.3221" y1="1608.9144" x2="1115.345" y2="1608.9144" gradientTransform="matrix(0 1 1 0 69.2835 -720.877)">
				<stop  offset="0.0102" style="stop-color:#1492B6"/>
				<stop  offset="1" style="stop-color:#1599BD"/>
			</linearGradient>
			<polygon class="st20" points="1963.06,394.47 1963.06,-50.55 1393.33,-50.55 1393.33,394.47 			"/>
			
				<rect x="1455.69" y="331.29" transform="matrix(-1.836970e-16 1 -1 -1.836970e-16 2294.3538 -1062.042)" class="st21" width="445.02" height="569.73"/>
		</g>
	</g>
	<circle class="st0" cx="1889.68" cy="394.26" r="20.85"/>
	<circle class="st0" cx="2011.48" cy="391.26" r="25.26"/>
</g>
<g>
	<circle class="st9" cx="2814.54" cy="796.81" r="43.32"/>
	<polygon class="st9" points="2893.88,922.01 2734.41,922.01 2758.24,849.46 2785.62,849.46 2799.85,872.95 2814.14,896.54 
		2828.43,872.95 2842.66,849.46 2868.76,849.46 	"/>
</g>
<g>
	<line class="st31" x1="499.05" y1="752.51" x2="499.05" y2="937.62"/>
	<line class="st31" x1="525.5" y1="752.51" x2="525.5" y2="937.62"/>
	<line class="st31" x1="551.94" y1="752.51" x2="551.94" y2="937.62"/>
	<line class="st31" x1="578.38" y1="752.51" x2="578.38" y2="937.62"/>
	<line class="st31" x1="447.46" y1="804.11" x2="630.63" y2="804.11"/>
	<line class="st31" x1="447.46" y1="831.2" x2="630.63" y2="831.2"/>
	<line class="st31" x1="447.46" y1="858.29" x2="630.63" y2="858.29"/>
	<line class="st31" x1="447.46" y1="884.46" x2="631.59" y2="884.46"/>
	<rect x="475.85" y="780.63" class="st32" width="129.64" height="129.64"/>
	<rect x="501" y="805.79" class="st32" width="79.33" height="79.33"/>
</g>
<g>
	<line class="st31" x1="499.05" y1="1202.23" x2="499.05" y2="1387.33"/>
	<line class="st31" x1="525.5" y1="1202.23" x2="525.5" y2="1387.33"/>
	<line class="st31" x1="551.94" y1="1202.23" x2="551.94" y2="1387.33"/>
	<line class="st31" x1="578.38" y1="1202.23" x2="578.38" y2="1387.33"/>
	<line class="st31" x1="447.46" y1="1253.82" x2="630.63" y2="1253.82"/>
	<line class="st31" x1="447.46" y1="1280.91" x2="630.63" y2="1280.91"/>
	<line class="st31" x1="447.46" y1="1308" x2="630.63" y2="1308"/>
	<line class="st31" x1="447.46" y1="1334.17" x2="631.59" y2="1334.17"/>
	<rect x="475.85" y="1230.35" class="st32" width="129.64" height="129.64"/>
	<rect x="501" y="1255.5" class="st32" width="79.33" height="79.33"/>
</g>
<g>
	<line class="st4" x1="3101.25" y1="523.62" x2="3101.25" y2="708.72"/>
	<line class="st4" x1="3127.7" y1="523.62" x2="3127.7" y2="708.72"/>
	<line class="st4" x1="3154.14" y1="523.62" x2="3154.14" y2="708.72"/>
	<line class="st4" x1="3180.59" y1="523.62" x2="3180.59" y2="708.72"/>
	<line class="st4" x1="3049.66" y1="575.22" x2="3232.83" y2="575.22"/>
	<line class="st4" x1="3049.66" y1="602.3" x2="3232.83" y2="602.3"/>
	<line class="st4" x1="3049.66" y1="629.39" x2="3232.83" y2="629.39"/>
	<line class="st4" x1="3049.66" y1="655.57" x2="3233.79" y2="655.57"/>
	<rect x="3078.05" y="551.74" class="st29" width="129.64" height="129.64"/>
	<rect x="3103.2" y="576.89" class="st29" width="79.33" height="79.33"/>
</g>
<g>
	<line class="st4" x1="3100.25" y1="977.4" x2="3100.25" y2="1162.51"/>
	<line class="st4" x1="3126.7" y1="977.4" x2="3126.7" y2="1162.51"/>
	<line class="st4" x1="3153.14" y1="977.4" x2="3153.14" y2="1162.51"/>
	<line class="st4" x1="3179.59" y1="977.4" x2="3179.59" y2="1162.51"/>
	<line class="st4" x1="3048.66" y1="1029" x2="3231.83" y2="1029"/>
	<line class="st4" x1="3048.66" y1="1056.09" x2="3231.83" y2="1056.09"/>
	<line class="st4" x1="3048.66" y1="1083.18" x2="3231.83" y2="1083.18"/>
	<line class="st4" x1="3048.66" y1="1109.35" x2="3232.79" y2="1109.35"/>
	<rect x="3077.05" y="1005.53" class="st29" width="129.64" height="129.64"/>
	<rect x="3102.2" y="1030.68" class="st29" width="79.33" height="79.33"/>
</g>
<g>
	<defs>
		<rect id="SVGID_8_" x="1420" y="584.61" width="512.29" height="63.12"/>
	</defs>
	<clipPath id="SVGID_4_">
		<use xlink:href="#SVGID_8_"  style="overflow:visible;"/>
	</clipPath>
	<g style="clip-path:url(#SVGID_4_);">
		
			<linearGradient id="SVGID_6_" gradientUnits="userSpaceOnUse" x1="892.4393" y1="1605.8812" x2="1337.4622" y2="1605.8812" gradientTransform="matrix(0 1 1 0 69.2835 -720.877)">
			<stop  offset="0.0102" style="stop-color:#1492B6"/>
			<stop  offset="1" style="stop-color:#1599BD"/>
		</linearGradient>
		<polygon style="fill:url(#SVGID_6_);" points="1960.03,616.59 1960.03,171.56 1390.3,171.56 1390.3,616.59 		"/>
		
			<rect x="1452.65" y="553.41" transform="matrix(-1.836970e-16 1 -1 -1.836970e-16 2513.4377 -836.8916)" class="st21" width="445.02" height="569.73"/>
	</g>
</g>
<circle class="st0" cx="1886.65" cy="616.37" r="20.85"/>
<circle class="st0" cx="2008.45" cy="613.37" r="25.26"/>
<g>
	<defs>
		<rect id="SVGID_11_" x="1415.63" y="810.94" width="512.29" height="63.12"/>
	</defs>
	<clipPath id="SVGID_7_">
		<use xlink:href="#SVGID_11_"  style="overflow:visible;"/>
	</clipPath>
	<g style="clip-path:url(#SVGID_7_);">
		
			<linearGradient id="SVGID_9_" gradientUnits="userSpaceOnUse" x1="1118.7689" y1="1601.5143" x2="1563.7919" y2="1601.5143" gradientTransform="matrix(0 1 1 0 69.2835 -720.877)">
			<stop  offset="0.0102" style="stop-color:#1492B6"/>
			<stop  offset="1" style="stop-color:#1599BD"/>
		</linearGradient>
		<polygon style="fill:url(#SVGID_9_);" points="1955.66,842.91 1955.66,397.89 1385.93,397.89 1385.93,842.91 		"/>
		
			<rect x="1448.29" y="779.74" transform="matrix(-1.836970e-16 1 -1 -1.836970e-16 2735.4004 -606.1951)" class="st21" width="445.02" height="569.73"/>
	</g>
</g>
<circle class="st0" cx="1882.28" cy="842.7" r="20.85"/>
<circle class="st0" cx="2008.45" cy="839.7" r="25.26"/>
<g>
	<defs>
		<rect id="SVGID_14_" x="1413.81" y="1038.4" width="512.29" height="63.12"/>
	</defs>
	<clipPath id="SVGID_10_">
		<use xlink:href="#SVGID_14_"  style="overflow:visible;"/>
	</clipPath>
	<g style="clip-path:url(#SVGID_10_);">
		
			<linearGradient id="SVGID_12_" gradientUnits="userSpaceOnUse" x1="1346.2252" y1="1599.6965" x2="1791.2482" y2="1599.6965" gradientTransform="matrix(0 1 1 0 69.2835 -720.877)">
			<stop  offset="0.0102" style="stop-color:#1492B6"/>
			<stop  offset="1" style="stop-color:#1599BD"/>
		</linearGradient>
		<polygon style="fill:url(#SVGID_12_);" points="1953.85,1070.37 1953.85,625.35 1384.11,625.35 1384.11,1070.37 		"/>
		
			<rect x="1446.47" y="1007.19" transform="matrix(-1.836970e-16 1 -1 -1.836970e-16 2961.0391 -376.921)" class="st21" width="445.02" height="569.73"/>
	</g>
</g>
<circle class="st0" cx="1880.46" cy="1070.16" r="20.85"/>
<circle class="st0" cx="2008.45" cy="1067.16" r="25.26"/>
<g>
	<defs>
		<rect id="SVGID_17_" x="1415.63" y="1254.58" width="512.29" height="63.12"/>
	</defs>
	<clipPath id="SVGID_13_">
		<use xlink:href="#SVGID_17_"  style="overflow:visible;"/>
	</clipPath>
	<g style="clip-path:url(#SVGID_13_);">
		
			<linearGradient id="SVGID_15_" gradientUnits="userSpaceOnUse" x1="1562.4075" y1="1601.5143" x2="2007.4304" y2="1601.5143" gradientTransform="matrix(0 1 1 0 69.2835 -720.877)">
			<stop  offset="0.0102" style="stop-color:#1492B6"/>
			<stop  offset="1" style="stop-color:#1599BD"/>
		</linearGradient>
		<polygon style="fill:url(#SVGID_15_);" points="1955.66,1286.55 1955.66,841.53 1385.93,841.53 1385.93,1286.55 		"/>
		
			<rect x="1448.29" y="1223.37" transform="matrix(-1.836970e-16 1 -1 -1.836970e-16 3179.0391 -162.5565)" class="st21" width="445.02" height="569.73"/>
	</g>
</g>
<circle class="st0" cx="1882.28" cy="1286.34" r="20.85"/>
<circle class="st0" cx="2008.45" cy="1283.34" r="25.26"/>
<circle class="st100" cx="757.21" cy="391.6" r="11.5"/>
<circle class="st23" cx="2597.45" cy="390.89" r="11.5"/>
<circle class="st100" cx="406.91" cy="615.03" r="11.5"/>
<circle class="st23" cx="2952.07" cy="613.8" r="11.5"/>
<circle class="st100" cx="754.49" cy="843.06" r="11.5"/>
<circle class="st100" cx="2598.82" cy="842.86" r="11.5"/>
<circle class="st23" cx="401.39" cy="1068.89" r="11.5"/>
<circle class="st100" cx="2952.07" cy="1068.89" r="11.5"/>
<circle class="st23" cx="756.66" cy="1293.78" r="11.5"/>
<circle class="st23" cx="2599.2" cy="1293.28" r="11.5"/>
<circle class="st100" cx="644.83" cy="209.16" r="11.5"/>
<circle class="st100" cx="2713.03" cy="209.16" r="11.5"/>
<circle class="st100" cx="644.72" cy="1475.84" r="11.5"/>
<circle class="st100" cx="2711.84" cy="1475.84" r="11.5"/>
</svg>
